PathFileType  4	(X/Y/Z) C:\Users\antoi\Documents\MyRepositories\mobilecap\ResultsAnalysis
DataRate	CameraRate	NumFrames	NumMarkers	Units	OrigDataRate	OrigDataStartFrame	OrigNumFrames
100.0	100.0	5	51	mm	100.0	1	271
Frame#	Time	r_knee			r_shank_antsup			r_ankle			r_calc			r_5meta			r_toe			L_knee			L_shank_antsup			L_ankle			L_calc			L_5meta			L_toe			r_sh2			r_sh3			r_sh4			L_sh2			L_sh3			r_thigh1			r_thigh2			r_thigh3			r_thigh4			r_thigh5			L_thigh1			L_thigh2			L_thigh3			L_thigh4			r.ASIS			r.PSIS			L.ASIS			L.PSIS			C7			R_Shoulder			L_Shoulder			R_Sternum			L_Sternum			R_humerus			R_elbow_med			R_elbow_lat			R_forearm			R_wrist_radius			R_wrist_ulna			L_humerus			L_elbow_med			L_elbow_lat			L_forearm			L_wrist_radius			L_wrist_ulna			R_HJC			L_HJC			R_HJC_reg			L_HJC_reg			
		X1	Y1	Z1	X2	Y2	Z2	X3	Y3	Z3	X4	Y4	Z4	X5	Y5	Z5	X6	Y6	Z6	X7	Y7	Z7	X8	Y8	Z8	X9	Y9	Z9	X10	Y10	Z10	X11	Y11	Z11	X12	Y12	Z12	X13	Y13	Z13	X14	Y14	Z14	X15	Y15	Z15	X16	Y16	Z16	X17	Y17	Z17	X18	Y18	Z18	X19	Y19	Z19	X20	Y20	Z20	X21	Y21	Z21	X22	Y22	Z22	X23	Y23	Z23	X24	Y24	Z24	X25	Y25	Z25	X26	Y26	Z26	X27	Y27	Z27	X28	Y28	Z28	X29	Y29	Z29	X30	Y30	Z30	X31	Y31	Z31	X32	Y32	Z32	X33	Y33	Z33	X34	Y34	Z34	X35	Y35	Z35	X36	Y36	Z36	X37	Y37	Z37	X38	Y38	Z38	X39	Y39	Z39	X40	Y40	Z40	X41	Y41	Z41	X42	Y42	Z42	X43	Y43	Z43	X44	Y44	Z44	X45	Y45	Z45	X46	Y46	Z46	X47	Y47	Z47	X48	Y48	Z48	X49	Y49	Z49	X50	Y50	Z50	X51	Y51	Z51	

1	0.00000000	-1172.74789	785.10634	-434.28878	-1147.26406	725.91701	-431.68900	-1200.61938	395.24288	-426.13624	-1256.00476	364.17247	-465.78692	-1093.05614	349.68502	-396.66195	-1055.12060	367.03184	-450.97882	-1164.11337	778.08099	-709.40528	-1135.05685	694.51304	-698.16082	-1213.26514	399.62299	-700.40564	-1268.54959	359.95213	-656.17220	-1113.99341	352.04053	-737.97949	-1060.67541	366.37767	-685.59436	-1164.21176	615.51820	-414.98595	-1218.35214	742.89597	-409.68541	-1243.74014	626.50080	-400.04693	-1211.58334	719.23558	-741.67280	-1229.30989	595.09618	-743.15596	-1098.16109	1033.40133	-392.89638	-1103.95676	920.49635	-410.58632	-1167.98857	900.81753	-406.19322	-1210.81158	1036.36726	-398.71245	-1214.29296	923.29930	-427.43207	-1088.79530	1053.42113	-766.75787	-1093.99633	915.95447	-736.12035	-1201.03137	1052.60325	-777.05001	-1208.85426	923.04287	-723.81028	-1046.31547	1237.73753	-470.84462	-1255.40751	1260.18121	-552.00641	-1039.72087	1237.98618	-694.68099	-1252.71585	1261.76214	-635.10153	-1175.05625	1706.39077	-590.69184	-1127.51498	1671.41283	-443.29838	-1121.52135	1669.78033	-732.53458	-1056.66521	1638.48772	-562.77429	-1056.43478	1635.38638	-601.98191	-1109.94658	1561.25819	-374.98808	-1200.46407	1357.48430	-363.88706	-1159.88975	1369.83913	-309.88278	-1075.37742	1323.00229	-325.52543	-982.86755	1222.31409	-368.03322	-1003.56243	1199.58163	-344.53901	-1117.88107	1562.37339	-800.89769	-1194.80031	1349.06693	-786.78787	-1161.95610	1366.09209	-841.11750	-1100.00901	1278.02321	-850.34889	-1057.81306	1156.91037	-838.98021	-1088.22959	1148.48171	-863.30319	-1126.74079	1147.91528	-481.55909	-1119.80334	1150.81027	-688.93033	-1113.90726	1164.65697	-505.19648	-1109.12314	1167.46690	-652.88849	
2	0.01000000	-1172.97508	784.98211	-434.32260	-1147.30478	725.94452	-431.67182	-1200.59501	395.19907	-426.02008	-1255.97143	364.11790	-465.65644	-1093.02243	349.76830	-396.64916	-1055.13895	367.08106	-451.03082	-1164.26454	778.19689	-709.48462	-1135.16483	694.52131	-698.12199	-1213.25011	399.63313	-700.43384	-1268.58355	360.03921	-656.29300	-1113.99652	352.04491	-737.97659	-1060.76217	366.35325	-685.57311	-1164.38407	615.42199	-414.93240	-1218.56040	742.76893	-409.73903	-1243.76858	626.40460	-400.03120	-1211.67641	719.21891	-741.66210	-1229.12394	595.18775	-743.50233	-1098.46077	1033.37825	-392.69012	-1104.31209	920.70770	-410.26015	-1168.24968	900.84143	-406.11070	-1211.11405	1036.26753	-398.62601	-1214.53216	923.30944	-427.50119	-1088.20969	1053.53224	-765.78875	-1094.17078	915.92489	-736.13128	-1201.23931	1052.60145	-777.05605	-1208.98796	923.00741	-723.97807	-1046.35792	1237.64570	-470.68461	-1255.47435	1260.37541	-551.86794	-1039.86774	1237.89747	-694.63427	-1252.63936	1262.24155	-635.33656	-1173.45906	1706.76372	-589.65067	-1125.70279	1671.45034	-442.78237	-1119.77542	1669.90935	-732.07232	-1054.99908	1638.30754	-562.47098	-1054.91222	1635.29717	-601.48605	-1109.32613	1560.82799	-374.75436	-1203.05142	1357.70484	-364.68913	-1162.52217	1369.83132	-310.59909	-1079.58593	1319.87456	-324.01485	-990.76652	1214.43738	-363.39652	-1012.77581	1193.17837	-339.43915	-1116.73580	1562.64946	-800.56592	-1194.81849	1349.76872	-786.84965	-1161.94055	1366.87927	-841.27559	-1100.51886	1278.38559	-850.79334	-1059.14923	1156.86748	-839.89247	-1089.71973	1148.67389	-864.18592	-1127.03010	1147.95291	-481.56349	-1120.01050	1150.91522	-688.93101	-1114.11929	1164.27695	-505.41230	-1109.10155	1167.57963	-653.15890	
3	0.02000000	-1173.12543	784.97758	-434.20047	-1147.28017	725.97503	-431.58454	-1200.59182	395.17329	-425.96691	-1255.97123	364.12547	-465.64894	-1093.00349	349.78435	-396.64276	-1055.16053	367.04807	-451.03518	-1164.37302	778.26947	-709.58738	-1135.24435	694.53024	-698.09025	-1213.25749	399.63257	-700.43475	-1268.63194	359.99934	-656.17062	-1113.99366	352.05608	-737.97458	-1060.75766	366.34442	-685.55628	-1164.34021	615.41636	-414.92981	-1218.62859	742.73025	-409.71280	-1243.81788	626.33377	-400.01639	-1211.73170	719.21342	-741.65273	-1229.13322	595.17618	-743.54432	-1098.70392	1033.15711	-392.55735	-1104.52240	920.72014	-410.14644	-1168.45022	900.83689	-406.03282	-1211.33348	1036.22490	-398.57773	-1214.75474	923.27003	-427.48469	-1088.59872	1053.47388	-765.68841	-1094.32550	915.93335	-736.21518	-1201.43587	1052.60539	-777.07809	-1209.13676	922.98578	-724.03538	-1046.28251	1237.54472	-470.56383	-1255.49620	1260.66776	-551.81572	-1040.01339	1237.82012	-694.61108	-1252.70119	1262.57949	-635.27400	-1171.61530	1707.00067	-589.11907	-1123.83130	1671.47170	-442.28526	-1118.02565	1670.03768	-731.68902	-1053.34849	1638.11715	-562.09858	-1053.30668	1635.14464	-601.05152	-1108.59654	1560.50764	-374.45702	-1205.35881	1358.13436	-365.65909	-1165.01918	1369.96013	-311.36044	-1083.61938	1316.92712	-322.64419	-998.64036	1206.99308	-358.68911	-1021.81472	1187.20310	-334.48013	-1115.51246	1562.89008	-800.26408	-1194.79781	1350.55309	-787.12672	-1161.91345	1367.62242	-841.58894	-1100.98749	1278.71392	-851.20865	-1060.50813	1156.90682	-840.78145	-1091.14186	1148.87061	-865.02188	-1127.22486	1148.01036	-481.52006	-1120.26722	1150.98890	-688.88941	-1114.24711	1164.22620	-505.31928	-1109.29751	1167.61194	-653.12693	
4	0.03000000	-1173.20845	785.03680	-434.03758	-1147.25128	725.97453	-431.46226	-1200.62952	395.13848	-425.99856	-1256.01966	364.15955	-465.74047	-1093.01145	349.72069	-396.63658	-1055.19545	366.96712	-450.98206	-1164.44527	778.28792	-709.65676	-1135.27517	694.54274	-698.07692	-1213.26805	399.62897	-700.42921	-1268.66542	359.94159	-656.04907	-1113.98767	352.06565	-737.97179	-1060.71328	366.35195	-685.55873	-1164.23523	615.45005	-414.87814	-1218.57221	742.72471	-409.58630	-1243.85948	626.27952	-399.99917	-1211.75070	719.21771	-741.64450	-1229.22070	595.14531	-743.44116	-1098.82559	1032.82437	-392.60012	-1104.64064	920.62479	-410.12005	-1168.59585	900.80464	-405.90515	-1211.41163	1036.24439	-398.67428	-1214.95692	923.23756	-427.41361	-1089.42351	1053.32354	-766.06624	-1094.45692	915.95996	-736.32576	-1201.60925	1052.61088	-777.12126	-1209.27554	922.96582	-724.01337	-1046.36648	1237.37888	-470.56491	-1255.52466	1261.05228	-551.81625	-1040.17686	1237.73558	-694.54835	-1252.76431	1262.84894	-635.02301	-1169.56431	1707.13505	-589.05624	-1121.90793	1671.49536	-441.76698	-1116.25915	1670.13613	-731.23283	-1051.69370	1637.92482	-561.66338	-1051.65462	1634.93647	-600.63506	-1107.77558	1560.29733	-373.98894	-1207.41518	1358.70284	-366.67017	-1167.27025	1370.16488	-312.16758	-1087.50312	1314.24853	-321.39363	-1006.57397	1200.14790	-354.06575	-1030.65817	1181.69271	-329.72439	-1114.21786	1563.18121	-800.16301	-1194.75962	1351.40360	-787.53876	-1161.78923	1368.34628	-841.92392	-1101.42771	1279.01620	-851.67075	-1061.90747	1156.95240	-841.62948	-1092.51565	1149.08663	-865.80946	-1127.48762	1148.04056	-481.47408	-1120.60339	1151.05260	-688.84539	-1114.55857	1164.43455	-505.19429	-1109.65630	1167.62536	-652.96422	
5	0.04000000	-1173.25733	785.04879	-433.97509	-1147.24514	725.94381	-431.36640	-1200.68704	395.07981	-426.07186	-1256.08400	364.17031	-465.83015	-1093.04540	349.64656	-396.62860	-1055.20768	366.94637	-450.92941	-1164.49412	778.29085	-709.67746	-1135.26592	694.55079	-698.08107	-1213.26602	399.62591	-700.43673	-1268.65273	359.97059	-656.12241	-1113.98441	352.06689	-737.96801	-1060.70857	366.35508	-685.57070	-1164.26376	615.39610	-414.74012	-1218.50553	742.65329	-409.35761	-1243.85583	626.19558	-399.97155	-1211.74288	719.22248	-741.64564	-1229.14411	595.19458	-743.52528	-1098.84306	1032.60671	-392.73117	-1104.76736	920.56578	-410.01626	-1168.73112	900.76091	-405.76872	-1211.47980	1036.36154	-398.66699	-1215.11453	923.25252	-427.31648	-1089.84735	1053.24916	-766.18110	-1094.57126	915.98059	-736.39609	-1201.76046	1052.61213	-777.17107	-1209.37739	922.93317	-723.99704	-1046.74752	1237.15814	-470.65181	-1255.62567	1261.46519	-551.80976	-1040.36264	1237.61798	-694.38577	-1252.75455	1263.18063	-634.83928	-1167.70653	1707.34085	-588.39188	-1119.93873	1671.48688	-441.22865	-1114.45925	1670.24026	-730.64011	-1050.02519	1637.72122	-561.22408	-1050.00920	1634.71505	-600.19666	-1106.87246	1560.03532	-373.50530	-1209.42159	1359.19102	-367.43220	-1169.22288	1370.44417	-312.91982	-1091.30947	1311.83032	-320.18722	-1014.63766	1193.88041	-349.62737	-1039.36110	1176.68593	-325.15483	-1112.89195	1563.54748	-800.06615	-1194.75085	1352.25013	-787.92592	-1161.55717	1369.07437	-842.03346	-1101.87430	1279.35699	-852.23081	-1063.29943	1156.94442	-842.40039	-1093.89259	1149.37004	-866.53683	-1127.94997	1148.03786	-481.44854	-1121.00227	1151.12616	-688.81659	-1115.14346	1164.64410	-505.26943	-1110.03926	1167.69388	-652.87448	
